<?xml version="1.0" encoding="iso-8859-1"?>
<!-- Generator: Adobe Illustrator 21.0.2, SVG Export Plug-In . SVG Version: 6.00 Build 0)  -->
<svg version="1.1" xmlns="http://www.w3.org/2000/svg" xmlns:xlink="http://www.w3.org/1999/xlink" x="0px" y="0px"
	 viewBox="0 0 44.38 25.503" style="enable-background:new 0 0 44.38 25.503;" xml:space="preserve">
<g id="Ascent_x5F_Technologies">
	<path d="M27.395,0.026C33.053-0.002,38.713,0.007,44.372,0c-0.024,8.388,0.024,16.776,0.002,25.165
		c-0.881,0.004-1.761,0.005-2.641,0.006c-0.038-1.81,0.005-3.62-0.025-5.431c-1.185-0.013-2.37,0.004-3.556-0.003
		C34.527,13.188,30.992,6.589,27.395,0.026z"/>
	<path d="M0.008,0.086c3.334-0.003,6.669-0.013,10.003-0.01c-0.022,1.899-0.006,3.797,0.002,5.695
		c1.375,0.01,2.75-0.008,4.126,0.011c-2.445,4.637-4.89,9.276-7.363,13.898c-1.249-0.018-2.495,0.086-3.744,0.048
		c-0.037,1.818,0.058,3.669-0.056,5.467c-0.859,0.138-1.806,0.021-2.699,0.061c-0.281,0.066-0.277-0.241-0.264-0.427
		C0.019,16.582-0.015,8.334,0.008,0.086z"/>
	<path d="M15.364,19.583c2.239-4.628,4.58-9.213,6.912-13.798c2.386,4.587,4.801,9.16,7.114,13.783
		c-1.3,0.006-2.601,0.011-3.901,0.01c-0.006,1.915-0.003,3.829-0.003,5.743c0.026,0.145-0.145,0.191-0.256,0.175
		c-1.989-0.002-3.978,0.012-5.966,0.003c-0.046-1.97,0.05-3.946-0.056-5.912C17.926,19.592,16.645,19.602,15.364,19.583z"/>
</g>
<g id="Layer_1">
</g>
</svg>
